<svg xmlns="http://www.w3.org/2000/svg" viewBox="0 0 512 512" width="64" height="64">
  <!-- پس‌زمینه نارنجی -->
  <path fill="#E44D26" d="M71 460L30 0h451l-41 460-185 52"/>
  <!-- لایه قرمز -->
  <path fill="#F16529" d="M256 472l149-41 35-391H256"/>
  <!-- متن سفید -->
  <path fill="#EBEBEB" d="M256 208h-75l-5-58h80V94H142l1 15 14 157h99v-58zm0 147l-64-17-4-45h-56l7 89 117 32z"/>
  <!-- متن سفید (روشن‌تر برای بخش‌های برجسته) -->
  <path fill="#FFF" d="M255 208v57h70l-7 73-63 17v59l117-32 1-10 13-144 1-15h-16zm0-114v56h137l1-12 3-29 1-15z"/>
</svg>